# xmcd
#
# Track frame offsets: 
#        150
#        11465
#        27325
#        41638
#        62924
#        79024
#        92868
#        108108
#        120582
#        134288
#        147220
#        162602
#
# Disc length: 2381 seconds
#
# Revision: 0
# Processed by: cddbd v1.5.2PL0 Copyright (c) Steve Scherf et al.
# Submitted via: ExactAudioCopy v0.99pb5
#
DISCID=9c094b0c
DTITLE=The New North String Band - Nnsb
DYEAR=2009
DGENRE=Bluegrass
TTITLE0=Bills
TTITLE1=River Bottom Blues
TTITLE2=John Hardy
TTITLE3=Nine Miles Lonesome
TTITLE4=Yellow Dog
TTITLE5=Waitin' On You
TTITLE6=Liquor and Love
TTITLE7=Up Above The Timberline
TTITLE8=Wicked Path of Sin
TTITLE9=Hey Miss
TTITLE10=Billy In The Low Ground
TTITLE11=Save 'em Up
EXTD=
EXTT0=
EXTT1=
EXTT2=
EXTT3=
EXTT4=
EXTT5=
EXTT6=
EXTT7=
EXTT8=
EXTT9=
EXTT10=
EXTT11=
PLAYORDER=
